Coordinates
version=1
nRows=43
nColumns=12
inDegrees=yes

Units are S.I. units (second, meters, Newtons, ...)
Angles are in degrees

endheader
time	SC_y	SC_z	SC_x	AC_y	AC_z	AC_x	GH_y	GH_z	GH_yy	EL_x	PS_y
       0.0              -38.59          9.388          12.43          61.43         -8.197         -16.18         -57.13           25.1         -134.0          127.6          69.02
   0.03392              -38.59          9.387          12.44          61.43         -8.198         -16.18         -57.15           25.1         -134.0          127.6          69.03
   0.06783              -38.59          9.386          12.44          61.43         -8.199         -16.18         -57.17           25.1         -133.9          127.6          69.03
    0.1018              -38.59          9.385          12.45          61.42         -8.199         -16.18         -57.19           25.1         -133.9          127.6          69.04
    0.1357              -38.58          9.385          12.46          61.42           -8.2         -16.18         -57.21           25.1         -133.9          127.6          69.05
    0.1696              -38.58          9.384          12.46          61.41         -8.201         -16.18         -57.23           25.1         -133.9          127.6          69.05
    0.2035              -38.58          9.383          12.47          61.41         -8.202         -16.18         -57.26           25.1         -133.9          127.5          69.06
    0.2374              -38.58          9.382          12.48           61.4         -8.203         -16.18         -57.28          25.11         -133.8          127.5          69.07
    0.2713              -38.57           9.38          12.49          61.39         -8.204         -16.18         -57.31          25.11         -133.8          127.5          69.08
    0.3053              -38.57          9.379           12.5          61.39         -8.205         -16.19         -57.34          25.11         -133.8          127.5          69.09
    0.3392              -38.56          9.378          12.51          61.38         -8.207         -16.19         -57.37          25.11         -133.7          127.5           69.1
    0.3731              -38.56          9.377          12.52          61.37         -8.208         -16.19         -57.41          25.11         -133.7          127.4          69.11
     0.407              -38.56          9.375          12.53          61.36         -8.209         -16.19         -57.45          25.12         -133.7          127.4          69.12
    0.4409              -38.55          9.373          12.54          61.35         -8.211         -16.19         -57.49          25.12         -133.6          127.4          69.14
    0.4748              -38.54          9.372          12.56          61.34         -8.213         -16.19         -57.53          25.12         -133.6          127.3          69.15
    0.5088              -38.54           9.37          12.57          61.33         -8.215         -16.19         -57.58          25.13         -133.5          127.3          69.17
    0.5427              -38.53          9.368          12.59          61.32         -8.217         -16.19         -57.63          25.13         -133.5          127.3          69.19
    0.5766              -38.53          9.365          12.61          61.31         -8.219          -16.2         -57.68          25.13         -133.4          127.2           69.2
    0.6105              -38.52          9.363          12.62           61.3         -8.221          -16.2         -57.74          25.14         -133.4          127.2          69.23
    0.6444              -38.51           9.36          12.65          61.28         -8.224          -16.2         -57.81          25.14         -133.3          127.1          69.25
    0.6783               -38.5          9.357          12.67          61.27         -8.227          -16.2         -57.88          25.15         -133.2          127.1          69.27
    0.7123              -38.49          9.354          12.69          61.25          -8.23          -16.2         -57.96          25.15         -133.2          127.0           69.3
    0.7462              -38.48           9.35          12.72          61.23         -8.233         -16.21         -58.05          25.16         -133.1          126.9          69.33
    0.7801              -38.47          9.346          12.75          61.21         -8.237         -16.21         -58.15          25.17         -133.0          126.9          69.36
     0.814              -38.45          9.342          12.79          61.18         -8.242         -16.21         -58.26          25.17         -132.9          126.8           69.4
    0.8479              -38.44          9.337          12.83          61.15         -8.247         -16.22         -58.38          25.18         -132.7          126.7          69.44
    0.8818              -38.42          9.331          12.87          61.12         -8.252         -16.22         -58.52          25.19         -132.6          126.6          69.49
    0.9158               -38.4          9.325          12.92          61.09         -8.258         -16.22         -58.67           25.2         -132.5          126.5          69.54
    0.9497              -38.38          9.318          12.97          61.05         -8.265         -16.23         -58.84          25.22         -132.3          126.3           69.6
    0.9836              -38.35           9.31          13.04           61.0         -8.273         -16.24         -59.04          25.23         -132.1          126.2          69.66
     1.018              -38.33          9.301          13.11          60.95         -8.282         -16.24         -59.26          25.24         -131.9          126.0          69.74
     1.051              -38.29           9.29          13.19           60.9         -8.292         -16.25         -59.52          25.26         -131.6          125.8          69.83
     1.085              -38.26          9.278          13.28          60.83         -8.304         -16.26         -59.82          25.28         -131.3          125.6          69.93
     1.119              -38.21          9.264          13.39          60.75         -8.317         -16.27         -60.16          25.31         -131.0          125.3          70.04
     1.153              -38.16          9.248          13.52          60.66         -8.333         -16.28         -60.57          25.34         -130.6          125.0          70.18
     1.187               -38.1          9.228          13.67          60.55         -8.352         -16.29         -61.05          25.37         -130.1          124.7          70.34
     1.221              -38.03          9.205          13.85          60.43         -8.375         -16.31         -61.61          25.41         -129.5          124.2          70.53
     1.255              -37.94          9.177          14.07          60.27         -8.402         -16.33         -62.29          25.46         -128.8          123.7          70.76
     1.289              -37.84          9.144          14.33          60.09         -8.434         -16.35         -63.11          25.52         -128.0          123.1          71.04
     1.323              -37.71          9.103          14.64          59.86         -8.474         -16.38         -64.12          25.59         -127.0          122.3          71.38
     1.357              -37.56          9.052          15.04          59.58         -8.523         -16.42         -65.36          25.67         -125.8          121.4           71.8
     1.391              -37.36          8.989          15.53          59.24         -8.585         -16.47          -66.9          25.78         -124.2          120.2          72.32
     1.425              -37.11           8.91          16.14           58.8         -8.662         -16.52         -68.85          25.92         -122.3          118.7          72.98
